<?xml version="1.0" standalone="no"?>
<!DOCTYPE svg PUBLIC "-//W3C//DTD SVG 1.1//EN" "http://www.w3.org/Graphics/SVG/1.1/DTD/svg11.dtd" >
<svg xmlns="http://www.w3.org/2000/svg">
<metadata>
This is a custom SVG webfont generated by Font Squirrel.
Copyright   : Ryoichi Tsunekawa BagelCo All rights reserved
</metadata>
<defs>
<font id="webfontWP6hJhSP" horiz-adv-x="1060" >
<font-face units-per-em="2048" ascent="1638" descent="-410" />
<missing-glyph horiz-adv-x="189" />
<glyph unicode=" "  horiz-adv-x="189" />
<glyph unicode="&#x09;" horiz-adv-x="189" />
<glyph unicode="&#xa0;" horiz-adv-x="189" />
<glyph unicode="!" horiz-adv-x="464" d="M95 804v1020h274v-1020l-20 -352h-234zM95 0v275h274v-275h-274z" />
<glyph unicode="&#x22;" horiz-adv-x="769" d="M137 1696l-42 416h254l-42 -416h-170zM463 1696l-43 416h255l-42 -416h-170z" />
<glyph unicode="#" horiz-adv-x="1678" d="M1255 1055l-58 -347h284l-42 -276h-287l-71 -432h-275l71 432h-237l-71 -432h-275l71 432h-270l42 276h273l58 347h-270l42 276h273l82 494h275l-82 -494h237l82 494h275l-82 -494h284l-42 -276h-287zM979 1055h-236l-56 -347h235z" />
<glyph unicode="$" horiz-adv-x="1099" d="M1004 467q6 -236 -133 -367q-83 -77 -205 -99v-128h-233v134q-164 42 -253 195q-76 131 -85 306l263 19q17 -161 83 -230q49 -54 113 -51q90 3 144 89q28 42 28 120q0 112 -102 226l-246 231q-127 121 -183 221q-71 125 -71 272q0 141 67 258q81 144 242 183v118h233 v-118q111 -25 183 -93q128 -119 143 -313l-265 -48q-12 111 -64 176q-35 44 -107 44q-76 0 -115 -67q-32 -54 -32 -134q0 -125 107 -256q39 -47 121 -115q96 -79 128 -112q102 -105 156 -201q80 -142 83 -260z" />
<glyph unicode="%" horiz-adv-x="1454" d="M551 1153q0 -93 -67.5 -159.5t-160.5 -66.5q-95 0 -161.5 66.5t-66.5 159.5v521q0 95 66.5 162t161.5 67t161.5 -68t66.5 -161v-521zM236 1156q0 -35 24 -59t59 -24t58.5 24t23.5 59v521q0 35 -24 59t-58 24q-35 0 -59 -24t-24 -59v-521zM1133 966q95 0 161 -67.5 t66 -161.5v-520q0 -95 -67 -160.5t-160 -65.5q-95 0 -161.5 66.5t-66.5 159.5v520q0 95 66.5 162t161.5 67zM1212 740q0 35 -24 59t-59 24t-59 -24t-24 -59v-520q0 -35 24 -59t59 -24t59 24t24 59v520zM343 -31h-161l931 1929h160z" />
<glyph unicode="&#x26;" horiz-adv-x="1268" d="M1167 858q-65 -291 -178 -491q106 -97 185 -98v-254q-160 0 -330 145q-163 -172 -349 -172q-215 0 -329 178q-71 112 -71 256q0 141 68 294q12 25 77 133l73 112l-57 130q-41 90 -55 128q-29 74 -41 134q-13 65 -13 128q0 122 54 224q55 108 160 161q83 45 183 45 q112 0 205 -56t143 -155q39 -80 39 -173q0 -164 -115 -312l-60 -78l-149 -199q92 -191 206 -356q68 156 105 331zM400 1482q0 -81 84 -282l35 44l37 48l58 77q64 84 64 157q0 54 -15 83q-36 92 -119 91q-71 0 -112 -77q-32 -61 -32 -141zM495 241q83 0 176 105 q-112 144 -226 352l-52 -90q-44 -100 -44 -186q0 -76 34 -124q39 -57 112 -57z" />
<glyph unicode="'" horiz-adv-x="443" d="M95 2112h254l-42 -416h-170z" />
<glyph unicode="(" horiz-adv-x="734" d="M636 1993q-79 -163 -140 -333q-96 -269 -127 -492q-12 -87 -11 -169q0 -266 141 -685q63 -183 141 -358l-177 -90q-103 169 -185 359q-183 426 -183 774q0 275 114 584q29 77 69 161q83 180 185 330z" />
<glyph unicode=")" horiz-adv-x="733" d="M272 2073q100 -150 183 -330q183 -399 184 -745q0 -348 -184 -774q-81 -191 -183 -358l-177 90q80 177 141 357q96 281 129 515q12 89 12 170q0 272 -140 660q-61 170 -138 333z" />
<glyph unicode="*" horiz-adv-x="910" d="M816 1478l-223 -39l152 -158l-189 -139l-105 199l-106 -199l-192 139l161 160l-219 37l75 219l199 -97l-32 225h232l-32 -228l208 100z" />
<glyph unicode="+" horiz-adv-x="1125" d="M665 993h366v-203h-366v-367h-204v367h-366v203h366v367h204v-367z" />
<glyph unicode="," horiz-adv-x="465" d="M95 0v273h276v-273l-100 -209h-117l66 209h-125z" />
<glyph unicode="-" horiz-adv-x="1003" d="M95 1049h814v-277h-814v277z" />
<glyph unicode="." horiz-adv-x="464" d="M95 273h274v-274h-274v274z" />
<glyph unicode="/" horiz-adv-x="1173" d="M855 1939h224l-760 -1994h-224z" />
<glyph unicode="0" d="M966 416q0 -182 -128 -308.5t-307 -126.5q-182 0 -309 127.5t-127 307.5v995q0 182 128 309t308 127q182 0 308.5 -128t126.5 -308v-995zM681 1417q0 65 -46.5 111.5t-112.5 46.5q-65 0 -111 -46.5t-46 -111.5v-997q0 -65 46 -111.5t111 -46.5t112 46.5t47 111.5v997z " />
<glyph unicode="1" horiz-adv-x="698" d="M327 0v1404h-232v192q99 12 188 75t129 153h192v-1824h-277z" />
<glyph unicode="2" horiz-adv-x="1085" d="M99 1309q0 259 140 396q121 121 317 120q180 0 307.5 -135t127.5 -315q0 -186 -83 -360q-45 -96 -211 -330l-134 -199l-50 -74q-48 -73 -72 -115q-12 -20 -12 -25l540 -1v-270h-874v252q0 9 61 100l62 94l71 103l197 275q127 177 189 321q51 118 51 220q0 83 -47 141 q-51 61 -131 61q-115 0 -163 -132q-16 -44 -16 -105v-70h-270v48z" />
<glyph unicode="3" horiz-adv-x="1080" d="M522 262q189 0 189 176v107q0 281 -294 281v236q159 0 235 89q70 80 69 224v42q0 179 -157 179q-87 0 -128 -67q-31 -51 -30 -133v-48h-269v43q0 195 99 317q112 140 315 139q193 0 310 -131q105 -118 105 -293v-78q0 -170 -102 -293q-44 -52 -102 -89q122 -68 189 -208 q35 -71 35 -173v-144q0 -202 -138 -332q-132 -125 -319 -125q-182 0 -308 128t-126 307v45l261 20l6 -64q6 -68 49 -111.5t111 -43.5z" />
<glyph unicode="4" horiz-adv-x="1125" d="M95 671l485 1154h275v-1154h176v-277h-176v-393h-275v393h-485v277zM580 671v568l-227 -568h227z" />
<glyph unicode="5" horiz-adv-x="1040" d="M399 1549v-391q41 58 114 90q39 16 92 16q180 0 266 -127q74 -109 74 -308v-393q0 -202 -128 -331q-122 -125 -308 -125q-180 0 -300 131q-115 125 -114 305v44l263 20l6 -63q10 -109 88 -145q23 -12 50 -12q169 0 169 176v447q0 80 -59 132q-28 25 -77 25 q-73 0 -107 -57q-29 -49 -29 -104v-50h-277v996h805v-276h-528z" />
<glyph unicode="6" horiz-adv-x="1018" d="M637 1372v45q0 67 -35.5 112.5t-101.5 45.5q-65 0 -100.5 -45.5t-35.5 -112.5v-364q95 84 208 84q182 0 272 -126q80 -111 80 -307v-313h-2q-9 -175 -126 -292.5t-287 -117.5q-182 0 -300 130q-115 125 -114 305v995q0 134 64.5 241.5t183.5 159.5q76 35 166 35 q180 0 300 -131q115 -125 115 -305v-39h-287zM365 420q0 -67 34 -110q36 -48 101 -48t102 48q35 44 35 110v338q0 79 -58 131q-28 25 -77 24q-71 0 -108 -56q-29 -47 -29 -104v-333z" />
<glyph unicode="7" horiz-adv-x="1015" d="M921 1825v-276l-386 -1548h-269l386 1548h-557v276h826z" />
<glyph unicode="8" horiz-adv-x="1082" d="M988 416q0 -182 -128 -308.5t-309 -126.5h-22q-182 0 -308 128t-126 307v166q0 167 112 292q48 54 112 89q-111 57 -172 189q-31 68 -31 172v99q0 177 105 293q116 131 308 131h22q193 0 310 -131q105 -118 105 -293v-99q0 -170 -102 -283q-45 -49 -100 -78 q122 -68 189 -208q35 -71 35 -173v-166zM713 545q0 163 -74 219q-35 26 -98 26q-109 0 -148 -93q-23 -57 -24 -152v-87q0 -90 56 -145q47 -47 116 -50q112 6 156 111q16 35 16 84v87zM721 1348q-3 188 -117 236q-26 12 -63 12q-71 0 -116 -40q-36 -32 -51.5 -82t-12.5 -126 q4 -119 38 -171q44 -70 142 -70q99 0 144 74q37 62 36 167z" />
<glyph unicode="9" horiz-adv-x="1018" d="M509 1847q180 0 300 -131q115 -125 115 -305v-995q0 -182 -118.5 -308.5t-296.5 -126.5q-182 0 -300 130q-115 125 -114 305v39h285v-45q0 -67 35.5 -112t100.5 -45t101 45t36 112v365q-96 -86 -208 -86q-180 0 -270 127q-80 111 -80 308v313h1q6 127 72 228t180 150 q74 32 161 32zM653 1408q0 67 -35.5 113t-101.5 46q-65 0 -100.5 -46t-35.5 -113v-337q0 -80 58 -133q26 -25 77 -25q105 0 131 111q7 33 7 51v333z" />
<glyph unicode=":" horiz-adv-x="465" d="M95 273h276v-273h-276v273zM95 1047h276v-275h-276v275z" />
<glyph unicode=";" horiz-adv-x="464" d="M95 273h274v-274l-98 -210h-117l64 210h-123v274zM95 1047h274v-275h-274v275z" />
<glyph unicode="&#x3c;" horiz-adv-x="1101" d="M1007 1388v-232l-627 -259l627 -263v-230l-912 395v199z" />
<glyph unicode="=" horiz-adv-x="1125" d="M95 1034v204h936v-204h-936zM95 636v203h936v-203h-936z" />
<glyph unicode="&#x3e;" horiz-adv-x="1101" d="M95 1388l912 -395v-199l-912 -390v230l626 261l-626 261v232z" />
<glyph unicode="?" horiz-adv-x="1057" d="M538 1847q221 0 335 -158q90 -125 90 -294q0 -282 -255 -537q-89 -89 -94 -206q-3 -39 -3 -88v-109h-276v109q0 257 126 383q137 135 188 278q29 83 29 174q0 95 -42 149q-47 63 -136 51q-83 -10 -119 -115q-16 -44 -22 -102l-264 46q15 170 113 287q67 79 186 113 q63 19 144 19zM335 263h276v-276h-276v276z" />
<glyph unicode="@" horiz-adv-x="2048" d="M1654 279h299l-27 -35q-153 -192 -386 -301q-227 -105 -477 -104q-413 0 -690.5 277.5t-277.5 734.5q0 454 258.5 765t719.5 311q278 0 451 -106q409 -250 409 -768q0 -292 -163 -532q-185 -271 -465 -271q-148 0 -195 121q-68 -63 -121 -89q-64 -32 -150 -32 q-205 0 -315 166q-96 143 -96 359q0 272 128 504q153 276 404 276q159 0 262 -135l14 97h275l-158 -1002q0 -25 22 -25q84 0 171 92q65 70 111 166q60 128 59 305q0 292 -173.5 473.5t-464.5 181.5q-335 0 -551 -229.5t-216 -615.5q0 -353 197 -575q205 -231 554 -231 q320 0 586 216zM1094 756q49 186 49 354q0 86 -30 144q-38 74 -117 74q-148 0 -225 -250q-55 -177 -55 -370q0 -90 32 -157q42 -87 122 -87q96 0 155 103q34 58 69 189z" />
<glyph unicode="A" horiz-adv-x="1182" d="M448 419l-67 -419h-286l309 1823h379l305 -1823h-288l-65 419h-287zM592 1405l-102 -718h204z" />
<glyph unicode="B" horiz-adv-x="1115" d="M95 0v1824h411q163 0 294 -86q112 -73 160 -225q26 -81 26 -194q0 -183 -97 -294q-41 -47 -96 -71q92 -35 155 -138q42 -70 63 -180q10 -57 10 -127q0 -173 -65 -294q-51 -95 -144 -151q-105 -64 -208 -64h-509zM391 272h115q140 0 194 144q19 49 19 113q0 153 -59 223 q-52 64 -154 64h-115v-544zM391 1079h115q128 0 172 125q16 47 16 115q0 113 -55 172q-51 54 -133 54h-115v-466z" />
<glyph unicode="C" d="M531 -23q-182 0 -309 127t-127 308v995q0 182 128 309t308 127q182 0 308.5 -128t126.5 -308v-208h-285v213q0 65 -46.5 112t-112.5 47q-65 0 -111 -46.5t-46 -112.5v-997q0 -65 46 -111.5t111 -46.5t112 46t47 112v251h285v-254q0 -182 -128 -308.5t-307 -126.5z" />
<glyph unicode="D" horiz-adv-x="1053" d="M959 436q0 -180 -127 -308t-305 -128h-432v1824h432q180 0 306 -128t126 -307v-953zM369 272h166q65 0 110.5 47.5t45.5 111.5v954q0 65 -46 111.5t-110 46.5h-166v-1271z" />
<glyph unicode="E" horiz-adv-x="971" d="M95 0v1824h782v-275h-508v-499h371v-276h-371v-499h508v-275h-782z" />
<glyph unicode="F" horiz-adv-x="971" d="M369 0h-274v1824h782v-275h-508v-499h371v-276h-371v-774z" />
<glyph unicode="G" d="M531 -23q-182 0 -309 128t-127 307v995q0 182 128 309t308 127q182 0 308.5 -128t126.5 -308v-208h-285v213q0 65 -46.5 112t-112.5 47q-65 0 -111 -46.5t-46 -112.5v-997q0 -65 46 -111.5t111 -46.5t112 46t47 112v359h-153v275h438v-637q0 -182 -128 -308.5 t-307 -126.5z" />
<glyph unicode="H" horiz-adv-x="1070" d="M371 772v-772h-276v1823h276v-774h329v774h276v-1823h-276v772h-329z" />
<glyph unicode="I" horiz-adv-x="464" d="M369 0h-274v1823h274v-1823z" />
<glyph unicode="J" horiz-adv-x="794" d="M700 413q0 -182 -127.5 -307.5t-307.5 -125.5q-105 0 -170 21l39 256q47 -9 80 -8q20 -1 58 1q67 4 113 48t46 109v1413h269v-1407z" />
<glyph unicode="K" horiz-adv-x="1157" d="M371 576v-576h-276v1824h276v-650l334 650h294l-376 -746l440 -1078h-323l-288 739z" />
<glyph unicode="L" horiz-adv-x="938" d="M844 0h-749v1823h274v-1550h475v-273z" />
<glyph unicode="M" horiz-adv-x="1464" d="M369 0h-274v1824h394l256 -1308l246 1308h379v-1824h-275v1146l-238 -1146h-221l-267 1143v-1143z" />
<glyph unicode="N" horiz-adv-x="1137" d="M404 1824l364 -1225v1225h275v-1824h-295l-379 1168v-1168h-274v1824h309z" />
<glyph unicode="O" d="M529 1846q182 0 309.5 -128t127.5 -309v-994q0 -182 -128 -309.5t-309 -127.5q-182 0 -308 128t-126 309v994q0 182 127.5 309.5t306.5 127.5zM679 1415q0 65 -45.5 111t-111.5 46q-65 0 -111.5 -45.5t-46.5 -111.5v-998q0 -65 46.5 -111t111.5 -46t111 46t46 111v998z " />
<glyph unicode="P" horiz-adv-x="1053" d="M528 1823q201 0 320 -127q111 -121 111 -308v-265q0 -180 -126 -308t-305 -128h-159v-687h-274v1823h433zM692 1383q0 71 -42.5 115t-114.5 44h-166v-583h166q65 0 111 46.5t46 111.5v266z" />
<glyph unicode="Q" horiz-adv-x="1106" d="M966 415q0 -118 -58 -219q36 -42 104 -42v-256q-207 0 -282 130q-92 -49 -199 -50q-182 0 -309 128t-127 309v994q0 182 128 309.5t308 127.5q182 0 308.5 -129t126.5 -308v-994zM681 1415q0 65 -46.5 111t-112.5 46q-65 0 -111 -45.5t-46 -111.5v-998q0 -65 46 -111 t111 -46t112 46t47 111v998z" />
<glyph unicode="R" horiz-adv-x="1111" d="M528 1823q230 0 337 -127q95 -111 95 -308v-265q0 -193 -147 -327l204 -796h-297l-167 688q-12 -1 -25 -1h-159v-687h-274v1823h433zM692 1383q0 159 -157 159h-166v-583h166q65 0 111 46.5t46 111.5v266z" />
<glyph unicode="S" horiz-adv-x="1098" d="M1004 454v-11q0 -184 -99 -315q-67 -92 -189 -129q-65 -20 -153 -21q-161 0 -268 80q-89 65 -140.5 178t-59.5 259l261 18q17 -159 85 -229q47 -51 107 -51h6q90 3 144 88q28 42 28 121q0 113 -103 226l-245 231q-137 132 -193 237q-61 118 -61 256q0 249 167 377 q103 77 256 77q147 0 252 -66q81 -51 131 -142.5t61 -210.5l-264 -48q-12 112 -64 174q-38 45 -109 46q-76 0 -115 -67q-32 -54 -32 -134q0 -125 108 -255q41 -49 122 -116q96 -80 127 -112q102 -102 157 -201q26 -47 42 -86q40 -97 41 -174z" />
<glyph unicode="T" horiz-adv-x="1047" d="M387 1548h-292v275h858v-275h-291v-1548h-275v1548z" />
<glyph unicode="U" d="M529 -20q-182 0 -308 126.5t-126 306.5v1410h269v-1407q0 -65 46.5 -111t111.5 -46t111 46t46 111v1407h287v-1410q0 -183 -128.5 -308t-308.5 -125z" />
<glyph unicode="V" horiz-adv-x="1224" d="M420 0l-325 1823h288l228 -1419l231 1419h288l-331 -1823h-379z" />
<glyph unicode="W" horiz-adv-x="1607" d="M1225 1823h288l-285 -1823h-264l-155 995l-146 -995h-263l-305 1823h288l144 -976l132 976h288l144 -976z" />
<glyph unicode="X" horiz-adv-x="1202" d="M1108 0h-295l-211 579l-212 -579h-295l357 916l-357 907h304l203 -563l202 563h304l-357 -907z" />
<glyph unicode="Y" horiz-adv-x="1201" d="M463 764l-368 1060h302l204 -655l202 655h304l-370 -1060v-764h-274v764z" />
<glyph unicode="Z" horiz-adv-x="992" d="M897 1823v-275l-506 -1275h506v-273h-802v273l507 1275h-507v275h802z" />
<glyph unicode="[" horiz-adv-x="651" d="M95 1937h462v-276h-186v-1389h186v-273h-462v1938z" />
<glyph unicode="\" horiz-adv-x="1173" d="M95 1937h222l762 -1992h-224z" />
<glyph unicode="]" horiz-adv-x="650" d="M95 1939h461v-1940h-461v274h186v1390h-186v276z" />
<glyph unicode="^" horiz-adv-x="776" d="M455 2112l227 -511h-189l-103 249l-103 -249h-192l226 511h134z" />
<glyph unicode="_" horiz-adv-x="1595" d="M95 -305v202h1406v-202h-1406z" />
<glyph unicode="`" horiz-adv-x="592" d="M95 2060h254l148 -418h-170z" />
<glyph unicode="a" horiz-adv-x="1182" d="M448 419l-67 -419h-286l309 1823h379l305 -1823h-288l-65 419h-287zM592 1405l-102 -718h204z" />
<glyph unicode="b" horiz-adv-x="1115" d="M95 0v1824h411q163 0 294 -86q112 -73 160 -225q26 -81 26 -194q0 -183 -97 -294q-41 -47 -96 -71q92 -35 155 -138q42 -70 63 -180q10 -57 10 -127q0 -173 -65 -294q-51 -95 -144 -151q-105 -64 -208 -64h-509zM391 272h115q140 0 194 144q19 49 19 113q0 153 -59 223 q-52 64 -154 64h-115v-544zM391 1079h115q128 0 172 125q16 47 16 115q0 113 -55 172q-51 54 -133 54h-115v-466z" />
<glyph unicode="c" d="M531 -23q-182 0 -309 127t-127 308v995q0 182 128 309t308 127q182 0 308.5 -128t126.5 -308v-208h-285v213q0 65 -46.5 112t-112.5 47q-65 0 -111 -46.5t-46 -112.5v-997q0 -65 46 -111.5t111 -46.5t112 46t47 112v251h285v-254q0 -182 -128 -308.5t-307 -126.5z" />
<glyph unicode="d" horiz-adv-x="1053" d="M959 436q0 -180 -127 -308t-305 -128h-432v1824h432q180 0 306 -128t126 -307v-953zM369 272h166q65 0 110.5 47.5t45.5 111.5v954q0 65 -46 111.5t-110 46.5h-166v-1271z" />
<glyph unicode="e" horiz-adv-x="971" d="M95 0v1824h782v-275h-508v-499h371v-276h-371v-499h508v-275h-782z" />
<glyph unicode="f" horiz-adv-x="971" d="M369 0h-274v1824h782v-275h-508v-499h371v-276h-371v-774z" />
<glyph unicode="g" d="M531 -23q-182 0 -309 128t-127 307v995q0 182 128 309t308 127q182 0 308.5 -128t126.5 -308v-208h-285v213q0 65 -46.5 112t-112.5 47q-65 0 -111 -46.5t-46 -112.5v-997q0 -65 46 -111.5t111 -46.5t112 46t47 112v359h-153v275h438v-637q0 -182 -128 -308.5 t-307 -126.5z" />
<glyph unicode="h" horiz-adv-x="1070" d="M371 772v-772h-276v1823h276v-774h329v774h276v-1823h-276v772h-329z" />
<glyph unicode="i" horiz-adv-x="464" d="M369 0h-274v1823h274v-1823z" />
<glyph unicode="j" horiz-adv-x="794" d="M700 413q0 -182 -127.5 -307.5t-307.5 -125.5q-105 0 -170 21l39 256q47 -9 80 -8q20 -1 58 1q67 4 113 48t46 109v1413h269v-1407z" />
<glyph unicode="k" horiz-adv-x="1157" d="M371 576v-576h-276v1824h276v-650l334 650h294l-376 -746l440 -1078h-323l-288 739z" />
<glyph unicode="l" horiz-adv-x="938" d="M844 0h-749v1823h274v-1550h475v-273z" />
<glyph unicode="m" horiz-adv-x="1464" d="M369 0h-274v1824h394l256 -1308l246 1308h379v-1824h-275v1146l-238 -1146h-221l-267 1143v-1143z" />
<glyph unicode="n" horiz-adv-x="1137" d="M404 1824l364 -1225v1225h275v-1824h-295l-379 1168v-1168h-274v1824h309z" />
<glyph unicode="o" d="M529 1846q182 0 309.5 -128t127.5 -309v-994q0 -182 -128 -309.5t-309 -127.5q-182 0 -308 128t-126 309v994q0 182 127.5 309.5t306.5 127.5zM679 1415q0 65 -45.5 111t-111.5 46q-65 0 -111.5 -45.5t-46.5 -111.5v-998q0 -65 46.5 -111t111.5 -46t111 46t46 111v998z " />
<glyph unicode="p" horiz-adv-x="1053" d="M528 1823q201 0 320 -127q111 -121 111 -308v-265q0 -180 -126 -308t-305 -128h-159v-687h-274v1823h433zM692 1383q0 71 -42.5 115t-114.5 44h-166v-583h166q65 0 111 46.5t46 111.5v266z" />
<glyph unicode="q" horiz-adv-x="1106" d="M966 415q0 -118 -58 -219q36 -42 104 -42v-256q-207 0 -282 130q-92 -49 -199 -50q-182 0 -309 128t-127 309v994q0 182 128 309.5t308 127.5q182 0 308.5 -129t126.5 -308v-994zM681 1415q0 65 -46.5 111t-112.5 46q-65 0 -111 -45.5t-46 -111.5v-998q0 -65 46 -111 t111 -46t112 46t47 111v998z" />
<glyph unicode="r" horiz-adv-x="1111" d="M528 1823q230 0 337 -127q95 -111 95 -308v-265q0 -193 -147 -327l204 -796h-297l-167 688q-12 -1 -25 -1h-159v-687h-274v1823h433zM692 1383q0 159 -157 159h-166v-583h166q65 0 111 46.5t46 111.5v266z" />
<glyph unicode="s" horiz-adv-x="1098" d="M1004 454v-11q0 -184 -99 -315q-67 -92 -189 -129q-65 -20 -153 -21q-161 0 -268 80q-89 65 -140.5 178t-59.5 259l261 18q17 -159 85 -229q47 -51 107 -51h6q90 3 144 88q28 42 28 121q0 113 -103 226l-245 231q-137 132 -193 237q-61 118 -61 256q0 249 167 377 q103 77 256 77q147 0 252 -66q81 -51 131 -142.5t61 -210.5l-264 -48q-12 112 -64 174q-38 45 -109 46q-76 0 -115 -67q-32 -54 -32 -134q0 -125 108 -255q41 -49 122 -116q96 -80 127 -112q102 -102 157 -201q26 -47 42 -86q40 -97 41 -174z" />
<glyph unicode="t" horiz-adv-x="1047" d="M387 1548h-292v275h858v-275h-291v-1548h-275v1548z" />
<glyph unicode="u" d="M529 -20q-182 0 -308 126.5t-126 306.5v1410h269v-1407q0 -65 46.5 -111t111.5 -46t111 46t46 111v1407h287v-1410q0 -183 -128.5 -308t-308.5 -125z" />
<glyph unicode="v" horiz-adv-x="1224" d="M420 0l-325 1823h288l228 -1419l231 1419h288l-331 -1823h-379z" />
<glyph unicode="w" horiz-adv-x="1607" d="M1225 1823h288l-285 -1823h-264l-155 995l-146 -995h-263l-305 1823h288l144 -976l132 976h288l144 -976z" />
<glyph unicode="x" horiz-adv-x="1202" d="M1108 0h-295l-211 579l-212 -579h-295l357 916l-357 907h304l203 -563l202 563h304l-357 -907z" />
<glyph unicode="y" horiz-adv-x="1201" d="M463 764l-368 1060h302l204 -655l202 655h304l-370 -1060v-764h-274v764z" />
<glyph unicode="z" horiz-adv-x="992" d="M897 1823v-275l-506 -1275h506v-273h-802v273l507 1275h-507v275h802z" />
<glyph unicode="{" horiz-adv-x="779" d="M239 1603q0 202 106 282q100 77 340 77v-190q-127 0 -172 -35t-45 -143v-390q0 -70 -36 -135q-39 -71 -100 -96q57 -22 97 -92q39 -64 39 -139v-391q0 -109 45.5 -142.5t171.5 -33.5v-191q-240 0 -340 77q-106 80 -106 282v281q0 151 -14 188q-31 83 -130 90v141 q100 9 130 92q13 35 14 186v282z" />
<glyph unicode="|" horiz-adv-x="450" d="M95 2401h261v-2551h-261v2551z" />
<glyph unicode="}" horiz-adv-x="779" d="M685 1030v-141q-63 -6 -87.5 -25.5t-41.5 -64.5q-9 -23 -12 -70q-1 -22 -1 -118v-281q0 -202 -108 -282q-97 -76 -340 -76v189q128 0 172 33.5t44 142.5v392q0 67 38.5 137.5t98.5 93.5q-57 23 -97 91.5t-40 139.5v392q0 109 -44 142.5t-172 33.5v190q240 0 340 -77 q108 -80 108 -282v-282q0 -95 1 -117q4 -64 30.5 -109t110.5 -52z" />
<glyph unicode="~" horiz-adv-x="1079" d="M656 2019q33 -15 61 -15q52 1 115 86l153 -113q-124 -166 -275 -160q-84 1 -221 77q-97 54 -133 54q-48 0 -109 -80l-152 113q119 161 267 156q68 -1 153 -42z" />
<glyph unicode="&#xaa;" horiz-adv-x="1182" d="M448 419l-67 -419h-286l309 1823h379l305 -1823h-288l-65 419h-287zM592 1405l-102 -718h204z" />
<glyph unicode="&#xad;" horiz-adv-x="1003" d="M95 1049h814v-277h-814v277z" />
<glyph unicode="&#xb2;" horiz-adv-x="1085" d="M99 1309q0 259 140 396q121 121 317 120q180 0 307.5 -135t127.5 -315q0 -186 -83 -360q-45 -96 -211 -330l-134 -199l-50 -74q-48 -73 -72 -115q-12 -20 -12 -25l540 -1v-270h-874v252q0 9 61 100l62 94l71 103l197 275q127 177 189 321q51 118 51 220q0 83 -47 141 q-51 61 -131 61q-115 0 -163 -132q-16 -44 -16 -105v-70h-270v48z" />
<glyph unicode="&#xb3;" horiz-adv-x="1080" d="M522 262q189 0 189 176v107q0 281 -294 281v236q159 0 235 89q70 80 69 224v42q0 179 -157 179q-87 0 -128 -67q-31 -51 -30 -133v-48h-269v43q0 195 99 317q112 140 315 139q193 0 310 -131q105 -118 105 -293v-78q0 -170 -102 -293q-44 -52 -102 -89q122 -68 189 -208 q35 -71 35 -173v-144q0 -202 -138 -332q-132 -125 -319 -125q-182 0 -308 128t-126 307v45l261 20l6 -64q6 -68 49 -111.5t111 -43.5z" />
<glyph unicode="&#xb9;" horiz-adv-x="698" d="M327 0v1404h-232v192q99 12 188 75t129 153h192v-1824h-277z" />
<glyph unicode="&#xba;" d="M529 1846q182 0 309.5 -128t127.5 -309v-994q0 -182 -128 -309.5t-309 -127.5q-182 0 -308 128t-126 309v994q0 182 127.5 309.5t306.5 127.5zM679 1415q0 65 -45.5 111t-111.5 46q-65 0 -111.5 -45.5t-46.5 -111.5v-998q0 -65 46.5 -111t111.5 -46t111 46t46 111v998z " />
<glyph unicode="&#xc0;" horiz-adv-x="1182" d="M275 2386h254l148 -418h-170zM448 419l-67 -419h-286l309 1823h379l305 -1823h-288l-65 419h-287zM592 1405l-102 -718h204z" />
<glyph unicode="&#xc2;" horiz-adv-x="1182" d="M660 2479l227 -511h-189l-103 249l-103 -249h-192l226 511h134zM448 419l-67 -419h-286l309 1823h379l305 -1823h-288l-65 419h-287zM592 1405l-102 -718h204z" />
<glyph unicode="&#xc3;" horiz-adv-x="1182" d="M710 2170q33 -15 61 -15q52 1 115 86l153 -113q-124 -166 -275 -160q-84 1 -221 77q-97 54 -133 54q-48 0 -109 -80l-152 113q119 161 267 156q68 -1 153 -42zM448 419l-67 -419h-286l309 1823h379l305 -1823h-288l-65 419h-287zM592 1405l-102 -718h204z" />
<glyph unicode="&#xc8;" horiz-adv-x="971" d="M168 2386h254l148 -418h-170zM95 0v1824h782v-275h-508v-499h371v-276h-371v-499h508v-275h-782z" />
<glyph unicode="&#xca;" horiz-adv-x="971" d="M552 2479l227 -511h-189l-103 249l-103 -249h-192l226 511h134zM95 0v1824h782v-275h-508v-499h371v-276h-371v-499h508v-275h-782z" />
<glyph unicode="&#xcc;" horiz-adv-x="464" d="M-85 2386h254l148 -418h-170zM369 0h-274v1823h274v-1823z" />
<glyph unicode="&#xce;" horiz-adv-x="464" d="M298 2479l227 -511h-189l-103 249l-103 -249h-192l226 511h134zM369 0h-274v1823h274v-1823z" />
<glyph unicode="&#xd1;" horiz-adv-x="1137" d="M685 2170q33 -15 61 -15q52 1 115 86l153 -113q-124 -166 -275 -160q-84 1 -221 77q-97 54 -133 54q-48 0 -109 -80l-152 113q119 161 267 156q68 -1 153 -42zM404 1824l364 -1225v1225h275v-1824h-295l-379 1168v-1168h-274v1824h309z" />
<glyph unicode="&#xd2;" d="M211 2386h254l148 -418h-170zM529 1846q182 0 309.5 -128t127.5 -309v-994q0 -182 -128 -309.5t-309 -127.5q-182 0 -308 128t-126 309v994q0 182 127.5 309.5t306.5 127.5zM679 1415q0 65 -45.5 111t-111.5 46q-65 0 -111.5 -45.5t-46.5 -111.5v-998q0 -65 46.5 -111 t111.5 -46t111 46t46 111v998z" />
<glyph unicode="&#xd4;" d="M596 2479l227 -511h-189l-103 249l-103 -249h-192l226 511h134zM529 1846q182 0 309.5 -128t127.5 -309v-994q0 -182 -128 -309.5t-309 -127.5q-182 0 -308 128t-126 309v994q0 182 127.5 309.5t306.5 127.5zM679 1415q0 65 -45.5 111t-111.5 46q-65 0 -111.5 -45.5 t-46.5 -111.5v-998q0 -65 46.5 -111t111.5 -46t111 46t46 111v998z" />
<glyph unicode="&#xd5;" d="M646 2170q33 -15 61 -15q52 1 115 86l153 -113q-124 -166 -275 -160q-84 1 -221 77q-97 54 -133 54q-48 0 -109 -80l-152 113q119 161 267 156q68 -1 153 -42zM529 1846q182 0 309.5 -128t127.5 -309v-994q0 -182 -128 -309.5t-309 -127.5q-182 0 -308 128t-126 309v994 q0 182 127.5 309.5t306.5 127.5zM679 1415q0 65 -45.5 111t-111.5 46q-65 0 -111.5 -45.5t-46.5 -111.5v-998q0 -65 46.5 -111t111.5 -46t111 46t46 111v998z" />
<glyph unicode="&#xd9;" d="M213 2386h254l148 -418h-170zM529 -20q-182 0 -308 126.5t-126 306.5v1410h269v-1407q0 -65 46.5 -111t111.5 -46t111 46t46 111v1407h287v-1410q0 -183 -128.5 -308t-308.5 -125z" />
<glyph unicode="&#xdb;" d="M598 2479l227 -511h-189l-103 249l-103 -249h-192l226 511h134zM529 -20q-182 0 -308 126.5t-126 306.5v1410h269v-1407q0 -65 46.5 -111t111.5 -46t111 46t46 111v1407h287v-1410q0 -183 -128.5 -308t-308.5 -125z" />
<glyph unicode="&#xe0;" horiz-adv-x="1182" d="M275 2386h254l148 -418h-170zM448 419l-67 -419h-286l309 1823h379l305 -1823h-288l-65 419h-287zM592 1405l-102 -718h204z" />
<glyph unicode="&#xe2;" horiz-adv-x="1182" d="M660 2479l227 -511h-189l-103 249l-103 -249h-192l226 511h134zM448 419l-67 -419h-286l309 1823h379l305 -1823h-288l-65 419h-287zM592 1405l-102 -718h204z" />
<glyph unicode="&#xe3;" horiz-adv-x="1182" d="M710 2170q33 -15 61 -15q52 1 115 86l153 -113q-124 -166 -275 -160q-84 1 -221 77q-97 54 -133 54q-48 0 -109 -80l-152 113q119 161 267 156q68 -1 153 -42zM448 419l-67 -419h-286l309 1823h379l305 -1823h-288l-65 419h-287zM592 1405l-102 -718h204z" />
<glyph unicode="&#xe8;" horiz-adv-x="971" d="M168 2386h254l148 -418h-170zM95 0v1824h782v-275h-508v-499h371v-276h-371v-499h508v-275h-782z" />
<glyph unicode="&#xea;" horiz-adv-x="971" d="M552 2479l227 -511h-189l-103 249l-103 -249h-192l226 511h134zM95 0v1824h782v-275h-508v-499h371v-276h-371v-499h508v-275h-782z" />
<glyph unicode="&#xec;" horiz-adv-x="464" d="M-85 2386h254l148 -418h-170zM369 0h-274v1823h274v-1823z" />
<glyph unicode="&#xee;" horiz-adv-x="464" d="M298 2479l227 -511h-189l-103 249l-103 -249h-192l226 511h134zM369 0h-274v1823h274v-1823z" />
<glyph unicode="&#xf1;" horiz-adv-x="1137" d="M685 2170q33 -15 61 -15q52 1 115 86l153 -113q-124 -166 -275 -160q-84 1 -221 77q-97 54 -133 54q-48 0 -109 -80l-152 113q119 161 267 156q68 -1 153 -42zM404 1824l364 -1225v1225h275v-1824h-295l-379 1168v-1168h-274v1824h309z" />
<glyph unicode="&#xf2;" d="M211 2386h254l148 -418h-170zM529 1846q182 0 309.5 -128t127.5 -309v-994q0 -182 -128 -309.5t-309 -127.5q-182 0 -308 128t-126 309v994q0 182 127.5 309.5t306.5 127.5zM679 1415q0 65 -45.5 111t-111.5 46q-65 0 -111.5 -45.5t-46.5 -111.5v-998q0 -65 46.5 -111 t111.5 -46t111 46t46 111v998z" />
<glyph unicode="&#xf4;" d="M596 2479l227 -511h-189l-103 249l-103 -249h-192l226 511h134zM529 1846q182 0 309.5 -128t127.5 -309v-994q0 -182 -128 -309.5t-309 -127.5q-182 0 -308 128t-126 309v994q0 182 127.5 309.5t306.5 127.5zM679 1415q0 65 -45.5 111t-111.5 46q-65 0 -111.5 -45.5 t-46.5 -111.5v-998q0 -65 46.5 -111t111.5 -46t111 46t46 111v998z" />
<glyph unicode="&#xf5;" d="M646 2170q33 -15 61 -15q52 1 115 86l153 -113q-124 -166 -275 -160q-84 1 -221 77q-97 54 -133 54q-48 0 -109 -80l-152 113q119 161 267 156q68 -1 153 -42zM529 1846q182 0 309.5 -128t127.5 -309v-994q0 -182 -128 -309.5t-309 -127.5q-182 0 -308 128t-126 309v994 q0 182 127.5 309.5t306.5 127.5zM679 1415q0 65 -45.5 111t-111.5 46q-65 0 -111.5 -45.5t-46.5 -111.5v-998q0 -65 46.5 -111t111.5 -46t111 46t46 111v998z" />
<glyph unicode="&#xf9;" d="M213 2386h254l148 -418h-170zM529 -20q-182 0 -308 126.5t-126 306.5v1410h269v-1407q0 -65 46.5 -111t111.5 -46t111 46t46 111v1407h287v-1410q0 -183 -128.5 -308t-308.5 -125z" />
<glyph unicode="&#xfb;" d="M598 2479l227 -511h-189l-103 249l-103 -249h-192l226 511h134zM529 -20q-182 0 -308 126.5t-126 306.5v1410h269v-1407q0 -65 46.5 -111t111.5 -46t111 46t46 111v1407h287v-1410q0 -183 -128.5 -308t-308.5 -125z" />
<glyph unicode="&#x152;" horiz-adv-x="2032" d="M1155 0v1824h782v-275h-508v-499h371v-276h-371v-499h508v-275h-782zM529 1846q182 0 309.5 -128t127.5 -309v-994q0 -182 -128 -309.5t-309 -127.5q-182 0 -308 128t-126 309v994q0 182 127.5 309.5t306.5 127.5zM679 1415q0 65 -45.5 111t-111.5 46q-65 0 -111.5 -45.5 t-46.5 -111.5v-998q0 -65 46.5 -111t111.5 -46t111 46t46 111v998z" />
<glyph unicode="&#x153;" horiz-adv-x="2032" d="M1155 0v1824h782v-275h-508v-499h371v-276h-371v-499h508v-275h-782zM529 1846q182 0 309.5 -128t127.5 -309v-994q0 -182 -128 -309.5t-309 -127.5q-182 0 -308 128t-126 309v994q0 182 127.5 309.5t306.5 127.5zM679 1415q0 65 -45.5 111t-111.5 46q-65 0 -111.5 -45.5 t-46.5 -111.5v-998q0 -65 46.5 -111t111.5 -46t111 46t46 111v998z" />
<glyph unicode="&#x2c6;" horiz-adv-x="776" d="M455 2112l227 -511h-189l-103 249l-103 -249h-192l226 511h134z" />
<glyph unicode="&#x2dc;" horiz-adv-x="189" d="M116 324q33 -15 61 -15q52 1 115 86l153 -113q-124 -166 -275 -160q-84 1 -221 77q-97 54 -133 54q-48 0 -109 -80l-152 113q119 161 267 156q68 -1 153 -42z" />
<glyph unicode="&#x2000;" horiz-adv-x="1239" />
<glyph unicode="&#x2001;" horiz-adv-x="2478" />
<glyph unicode="&#x2002;" horiz-adv-x="1239" />
<glyph unicode="&#x2003;" horiz-adv-x="2478" />
<glyph unicode="&#x2004;" horiz-adv-x="826" />
<glyph unicode="&#x2005;" horiz-adv-x="619" />
<glyph unicode="&#x2006;" horiz-adv-x="413" />
<glyph unicode="&#x2007;" horiz-adv-x="413" />
<glyph unicode="&#x2008;" horiz-adv-x="309" />
<glyph unicode="&#x2009;" horiz-adv-x="494" />
<glyph unicode="&#x200a;" horiz-adv-x="136" />
<glyph unicode="&#x2010;" horiz-adv-x="1003" d="M95 1049h814v-277h-814v277z" />
<glyph unicode="&#x2011;" horiz-adv-x="1003" d="M95 1049h814v-277h-814v277z" />
<glyph unicode="&#x2012;" horiz-adv-x="1003" d="M95 1049h814v-277h-814v277z" />
<glyph unicode="&#x2013;" horiz-adv-x="1024" d="M204 512v204h616v-204h-616z" />
<glyph unicode="&#x2014;" horiz-adv-x="2048" d="M204 512v204h1640v-204h-1640z" />
<glyph unicode="&#x2018;" horiz-adv-x="592" d="M95 2060h254l148 -418h-170z" />
<glyph unicode="&#x2019;" horiz-adv-x="443" d="M95 2112h254l-42 -416h-170z" />
<glyph unicode="&#x201c;" horiz-adv-x="769" d="M137 1696l-42 416h254l-42 -416h-170zM463 1696l-43 416h255l-42 -416h-170z" />
<glyph unicode="&#x201d;" horiz-adv-x="769" d="M137 1696l-42 416h254l-42 -416h-170zM463 1696l-43 416h255l-42 -416h-170z" />
<glyph unicode="&#x2026;" horiz-adv-x="1392" d="M1023 273h274v-274h-274v274zM559 273h274v-274h-274v274zM95 273h274v-274h-274v274z" />
<glyph unicode="&#x202f;" horiz-adv-x="494" />
<glyph unicode="&#x2039;" horiz-adv-x="1101" d="M1007 1388v-232l-627 -259l627 -263v-230l-912 395v199z" />
<glyph unicode="&#x203a;" horiz-adv-x="1101" d="M95 1388l912 -395v-199l-912 -390v230l626 261l-626 261v232z" />
<glyph unicode="&#x205f;" horiz-adv-x="619" />
<glyph unicode="&#x2122;" horiz-adv-x="2512" d="M1416 0h-274v1824h394l256 -1308l246 1308h379v-1824h-275v1146l-238 -1146h-221l-267 1143v-1143zM387 1548h-292v275h858v-275h-291v-1548h-275v1548z" />
<glyph unicode="&#xe000;" horiz-adv-x="1825" d="M0 1825h1825v-1825h-1825v1825z" />
<glyph unicode="&#xfb01;" horiz-adv-x="1435" d="M1341 0h-274v1823h274v-1823zM369 0h-274v1824h782v-275h-508v-499h371v-276h-371v-774z" />
<glyph unicode="&#xfb02;" horiz-adv-x="1909" d="M1816 0h-749v1823h274v-1550h475v-273zM369 0h-274v1824h782v-275h-508v-499h371v-276h-371v-774z" />
<glyph unicode="&#xfb03;" horiz-adv-x="2407" d="M2312 0h-274v1823h274v-1823zM1341 0h-274v1824h782v-275h-508v-499h371v-276h-371v-774zM369 0h-274v1824h782v-275h-508v-499h371v-276h-371v-774z" />
<glyph unicode="&#xfb04;" horiz-adv-x="2881" d="M2787 0h-749v1823h274v-1550h475v-273zM1341 0h-274v1824h782v-275h-508v-499h371v-276h-371v-774zM369 0h-274v1824h782v-275h-508v-499h371v-276h-371v-774z" />
</font>
</defs>
</svg>
